<svg width="232" height="48" viewBox="0 0 232 48" fill="none" xmlns="http://www.w3.org/2000/svg">
<path d="M223.711 0H175.854C171.686 0 168.307 3.37914 168.307 7.54752V40.1572C168.307 44.3256 171.686 47.7047 175.854 47.7047H223.711C227.879 47.7047 231.258 44.3256 231.258 40.1572V7.54752C231.258 3.37914 227.879 0 223.711 0Z" fill="#BD85FF"/>
<path d="M182.997 8.09766H191.596L199.682 39.0598H193.147L191.511 31.9652H182.866L181.231 39.0598H174.738L182.994 8.09766H182.997ZM190.308 26.9315L187.943 16.7395C187.858 16.3109 187.769 15.8428 187.684 15.3412C187.599 14.8397 187.526 14.3594 187.468 13.9004C187.411 13.4141 187.353 12.9125 187.295 12.3958H187.037C186.979 12.9125 186.909 13.4141 186.821 13.9004C186.763 14.3594 186.699 14.8397 186.626 15.3412C186.554 15.8428 186.462 16.3078 186.347 16.7395L184.024 26.9315H190.301H190.308Z" fill="white"/>
<path d="M203.338 33.2111H211.724V21.2135H204.414V15.4077H217.746V33.2111H224.412V39.0595H203.341V33.2111H203.338ZM210.432 9.17335C210.432 8.25536 210.727 7.52584 211.314 6.98174C211.901 6.43763 212.682 6.16406 213.658 6.16406H214.946C215.922 6.16406 216.703 6.43763 217.29 6.98174C217.877 7.52584 218.172 8.2584 218.172 9.17335C218.172 10.0883 217.877 10.8209 217.29 11.365C216.703 11.9091 215.907 12.1826 214.904 12.1826H213.658C212.682 12.1826 211.901 11.9121 211.314 11.365C210.727 10.8209 210.432 10.0883 210.432 9.17335Z" fill="white"/>
<path d="M25.0257 8.91797V15.7542H16.5967V39.0169H8.42599V15.7542H0V8.91797H25.0257Z" fill="#191919"/>
<path d="M50.313 8.96094V39.0629H42.2274V34.0748H32.8531L30.8317 39.0629H21.585L30.6584 17.1316C33.4093 10.5081 35.2605 8.96094 42.2244 8.96094H50.3099H50.313ZM42.2274 15.8397C40.4219 16.1407 39.434 17.8611 37.8837 21.6455L35.6465 27.2355H42.2244V15.8397H42.2274Z" fill="#191919"/>
<path d="M75.9406 32.2236V39.0598H60.2893C56.5475 39.0598 55.3438 37.2968 55.3438 33.8134V8.96094H63.5144V30.9348C63.5144 31.8801 63.7302 32.2236 64.7607 32.2236H75.9406Z" fill="#191919"/>
<path d="M86.993 17.086V20.5695H99.4193V27.4483H86.993V30.9317C86.993 31.8771 87.2089 32.2206 88.2393 32.2206H101.568V39.0568H83.7649C80.0231 39.0568 78.8193 37.2938 78.8193 33.8103V14.25C78.8193 10.724 80.0231 8.96094 83.7649 8.96094H101.568V15.7972H88.2393C87.2058 15.7972 86.993 16.1407 86.993 17.086Z" fill="#191919"/>
<path d="M133.347 8.96094V39.0629H127.584C123.8 39.0629 122.122 38.2027 120.404 34.7192L114.082 22.1197V39.0629H105.911V8.96094H111.544C115.799 8.96094 117.176 10.2072 118.769 13.4323L125.177 26.2476V8.96094H133.347Z" fill="#191919"/>
<path d="M161.343 8.91797V15.7542H152.914V39.0169H144.743V15.7542H136.314V8.91797H161.34H161.343Z" fill="#191919"/>
</svg>
