<svg width="144" height="31" viewBox="0 0 144 31" fill="none" xmlns="http://www.w3.org/2000/svg">
<path d="M139.3 0.647629H109.501C106.905 0.647629 104.801 2.75175 104.801 5.34731V25.6527C104.801 28.2482 106.905 30.3524 109.501 30.3524H139.3C141.896 30.3524 144 28.2482 144 25.6527V5.34731C144 2.75175 141.896 0.647629 139.3 0.647629Z" fill="#00FF9D"/>
<path d="M113.949 5.6899H119.304L124.338 24.9694H120.269L119.25 20.5517H113.868L112.849 24.9694H108.806L113.947 5.6899H113.949ZM118.501 17.4173L117.028 11.071C116.975 10.8041 116.921 10.5126 116.868 10.2003C116.815 9.888 116.769 9.58895 116.733 9.30314C116.697 9.00031 116.661 8.688 116.625 8.36624H116.464C116.428 8.688 116.385 9.00031 116.33 9.30314C116.294 9.58895 116.254 9.888 116.209 10.2003C116.163 10.5126 116.107 10.8022 116.035 11.071L114.589 17.4173H118.497H118.501Z" fill="white"/>
<path d="M126.615 21.3278H131.837V13.8571H127.285V10.242H135.587V21.3278H139.738V24.9694H126.617V21.3278H126.615ZM131.033 6.35993C131.033 5.78832 131.216 5.33406 131.582 4.99526C131.947 4.65646 132.433 4.48611 133.041 4.48611H133.844C134.451 4.48611 134.938 4.65646 135.303 4.99526C135.668 5.33406 135.852 5.79022 135.852 6.35993C135.852 6.92965 135.668 7.3858 135.303 7.7246C134.938 8.0634 134.442 8.23375 133.817 8.23375H133.041C132.433 8.23375 131.947 8.06529 131.582 7.7246C131.216 7.3858 131.033 6.92965 131.033 6.35993Z" fill="white"/>
<path d="M15.583 6.20094V10.4577H10.3344V24.9429H5.24669V10.4577H0V6.20094H15.583Z" fill="#191919"/>
<path d="M31.3287 6.22745V24.9713H26.294V21.8653H20.4568L19.1981 24.9713H13.4404L19.0902 11.3151C20.8031 7.19085 21.9558 6.22745 26.2921 6.22745H31.3268H31.3287ZM26.294 10.5107C25.1697 10.6981 24.5546 11.7694 23.5893 14.1259L22.1962 17.6066H26.2921V10.5107H26.294Z" fill="#191919"/>
<path d="M47.2864 20.7126V24.9694H37.5407C35.2107 24.9694 34.4612 23.8716 34.4612 21.7025V6.22745H39.5489V19.9101C39.5489 20.4987 39.6833 20.7126 40.3249 20.7126H47.2864Z" fill="#191919"/>
<path d="M54.1685 11.2868V13.4558H61.9061V17.7391H54.1685V19.9082C54.1685 20.4968 54.3029 20.7107 54.9445 20.7107H63.2442V24.9675H52.1584C49.8284 24.9675 49.0789 23.8697 49.0789 21.7006V9.52082C49.0789 7.32524 49.8284 6.22745 52.1584 6.22745H63.2442V10.4842H54.9445C54.301 10.4842 54.1685 10.6981 54.1685 11.2868Z" fill="#191919"/>
<path d="M83.0328 6.22745V24.9713H79.4442C77.0877 24.9713 76.0429 24.4356 74.9735 22.2666L71.0366 14.4211V24.9713H65.9489V6.22745H69.4562C72.106 6.22745 72.9634 7.00347 73.9552 9.01167L77.9451 16.9915V6.22745H83.0328Z" fill="#191919"/>
<path d="M100.465 6.20094V10.4577H95.2164V24.9429H90.1287V10.4577H84.8801V6.20094H100.463H100.465Z" fill="#191919"/>
</svg>
